# xmcd
#
# Track frame offsets: 
#        150
#        11416
#        25692
#        39151
#        51749
#        63444
#        78789
#        91829
#        104210
#        115385
#        127037
#        138544
#        149041
#        161903
#        173903
#
# Disc length: 2480 seconds
#
# Revision: 2
# Processed by: cddbd v1.5.2PL0 Copyright (c) Steve Scherf et al.
# Submitted via: ExactAudioCopy v1.1
#
DISCID=d709ae0f
DTITLE=Ray Charles - Nothing But The Blues
DYEAR=1900
DGENRE=Blues
TTITLE0=A Sentimental Blues
TTITLE1=Ain't That Fine
TTITLE2=Kiss Me Baby
TTITLE3=Goin' Down Slow
TTITLE4=How Long Blues
TTITLE5=I'm Just a Lonely Boy
TTITLE6=Baby, Won't You Please Come Home
TTITLE7=Honey, Honey
TTITLE8=I'll Do Anything But Work
TTITLE9=Tell Me Baby
TTITLE10=She's On The Ball
TTITLE11=Now She's Gone
TTITLE12=Can Anyone Ask For More
TTITLE13=Can't You See
TTITLE14=See See Rider (C. C. Rider)
EXTD=ID3G:   0
EXTT0=
EXTT1=
EXTT2=
EXTT3=
EXTT4=
EXTT5=
EXTT6=
EXTT7=
EXTT8=
EXTT9=
EXTT10=
EXTT11=
EXTT12=
EXTT13=
EXTT14=
PLAYORDER=
